<svg width="45" height="61" viewBox="0 0 45 61" fill="none" xmlns="http://www.w3.org/2000/svg">
<path d="M20.1562 59.3281C21.2109 60.9688 23.6719 60.9688 24.7266 59.3281C41.8359 34.7188 45 32.1406 45 23C45 10.5781 34.9219 0.5 22.5 0.5C9.96094 0.5 0 10.5781 0 23C0 32.1406 3.04688 34.7188 20.1562 59.3281ZM22.5 32.375C17.2266 32.375 13.125 28.2734 13.125 23C13.125 17.8438 17.2266 13.625 22.5 13.625C27.6562 13.625 31.875 17.8438 31.875 23C31.875 28.2734 27.6562 32.375 22.5 32.375Z" fill="#FF0844"/>
</svg>
